<svg width="179" height="52" viewBox="0 0 179 52" fill="none" xmlns="http://www.w3.org/2000/svg">
<path d="M0.912464 10.5685C0.596289 11.0214 0.707062 11.6448 1.15989 11.9609L8.53905 17.1134C8.99188 17.4296 9.61528 17.3188 9.93146 16.866C10.2476 16.4132 10.1369 15.7898 9.68405 15.4736L3.12478 10.8936L7.70474 4.33435C8.02093 3.88153 7.91016 3.25813 7.45733 2.94194C7.00451 2.62576 6.38111 2.73654 6.06492 3.18936L0.912464 10.5685ZM177.922 46.5127C177.203 46.5859 176.49 46.6577 175.783 46.7281L175.981 48.7183C176.69 48.6477 177.404 48.5758 178.125 48.5023L177.922 46.5127ZM171.605 47.1331C170.235 47.2623 168.886 47.386 167.56 47.504L167.737 49.4961C169.067 49.3778 170.419 49.2538 171.793 49.1242L171.605 47.1331ZM163.645 47.8414C162.35 47.9493 161.076 48.0516 159.824 48.1485L159.979 50.1425C161.235 50.0454 162.512 49.9427 163.811 49.8345L163.645 47.8414ZM155.575 48.4618C154.187 48.559 152.827 48.649 151.494 48.732L151.619 50.7281C152.957 50.6448 154.322 50.5545 155.715 50.4569L155.575 48.4618ZM147.579 48.9599C146.247 49.0318 144.944 49.0963 143.67 49.1534L143.759 51.1514C145.04 51.094 146.349 51.0292 147.687 50.957L147.579 48.9599ZM139.454 49.3191C138.086 49.3651 136.753 49.4019 135.456 49.4298L135.499 51.4293C136.805 51.4013 138.145 51.3642 139.522 51.318L139.454 49.3191ZM131.669 49.4868C130.198 49.499 128.778 49.4987 127.405 49.4863L127.387 51.4862C128.772 51.4987 130.204 51.499 131.685 51.4867L131.669 49.4868ZM123.43 49.4133C122.068 49.3747 120.76 49.3229 119.502 49.2583L119.399 51.2556C120.673 51.3211 121.997 51.3735 123.374 51.4125L123.43 49.4133ZM115.387 48.9873C114.053 48.8785 112.788 48.7532 111.587 48.6121L111.353 50.5985C112.58 50.7425 113.869 50.8701 115.224 50.9807L115.387 48.9873ZM107.483 48.0283C106.104 47.7937 104.833 47.5338 103.663 47.2509L103.192 49.1948C104.412 49.4897 105.728 49.7586 107.148 50L107.483 48.0283ZM99.9568 46.1653C98.5707 45.6741 97.3931 45.141 96.3985 44.5751L95.4094 46.3133C96.5231 46.9471 97.8112 47.5268 99.2888 48.0504L99.9568 46.1653ZM93.4945 42.3354C92.6084 41.3675 92.0641 40.3381 91.7752 39.2578L89.8431 39.7746C90.2168 41.1718 90.9206 42.4858 92.0193 43.6859L93.4945 42.3354ZM91.6226 35.6535C91.788 34.4738 92.1326 33.2347 92.6102 31.9464L90.7349 31.2512C90.2232 32.6314 89.8328 34.0144 89.642 35.3759L91.6226 35.6535ZM94.1906 28.349C94.7713 27.176 95.4071 25.9925 96.0606 24.8044L94.3081 23.8406C93.6497 25.0376 92.9978 26.2504 92.3982 27.4617L94.1906 28.349ZM98.0241 21.2517C98.6944 20.0227 99.3392 18.7993 99.9054 17.6013L98.0972 16.7466C97.5551 17.8936 96.9314 19.0782 96.2683 20.2941L98.0241 21.2517ZM101.434 13.723C101.878 12.2193 102.103 10.7282 101.94 9.30894L99.9528 9.53775C100.075 10.5992 99.9146 11.8056 99.5159 13.1572L101.434 13.723ZM99.9597 5.19323C99.0498 4.27513 97.8329 3.50146 96.289 2.86615L95.5279 4.71568C96.8908 5.27653 97.8619 5.91775 98.5391 6.60106L99.9597 5.19323ZM92.2764 1.67143C91.041 1.40969 89.6679 1.19387 88.1463 1.02598L87.9269 3.01391C89.3943 3.17582 90.7012 3.3821 91.8618 3.628L92.2764 1.67143ZM84.0444 0.708148C82.7969 0.647092 81.4699 0.610465 80.0593 0.599264L80.0434 2.5992C81.4295 2.61021 82.7291 2.64617 83.9466 2.70576L84.0444 0.708148ZM75.8911 0.635092C74.6261 0.664985 73.3038 0.712003 71.9222 0.776713L72.0158 2.77452C73.3831 2.71048 74.6898 2.66404 75.9383 2.63453L75.8911 0.635092ZM67.8847 1.0054C66.5378 1.094 65.1409 1.19742 63.6923 1.31607L63.8556 3.3094C65.2942 3.19156 66.6804 3.08895 68.016 3.00108L67.8847 1.0054ZM59.8491 1.65537C58.5293 1.77987 57.1704 1.91586 55.7714 2.06361L55.9815 4.05255C57.3734 3.90554 58.7249 3.77029 60.0369 3.64653L59.8491 1.65537ZM51.5881 2.52681C50.3458 2.67041 49.0744 2.82253 47.7733 2.98331L48.0186 4.96821C49.3147 4.80805 50.5809 4.65656 51.8177 4.51358L51.5881 2.52681ZM43.7805 3.49183C42.4195 3.67012 41.0281 3.85725 39.6058 4.05337L39.879 6.03462C41.297 5.83909 42.6839 5.65257 44.0403 5.47489L43.7805 3.49183ZM35.6336 4.61303C34.3715 4.7945 33.0864 4.98264 31.7781 5.17755L32.0728 7.15572C33.3779 6.9613 34.6596 6.77365 35.9182 6.59267L35.6336 4.61303ZM27.7829 5.78266C26.4276 5.99121 25.0486 6.20662 23.6455 6.429L23.9586 8.40434C25.3588 8.18242 26.7348 7.96747 28.087 7.7594L27.7829 5.78266ZM19.5882 7.08064C18.3362 7.28428 17.0661 7.4932 15.7775 7.70746L16.1055 9.68038C17.3919 9.46649 18.6597 9.25795 19.9093 9.0547L19.5882 7.08064ZM11.8559 8.36634C10.5301 8.59136 9.18555 8.82178 7.82204 9.05769L8.16299 11.0284C9.52445 10.7929 10.8669 10.5628 12.1906 10.3381L11.8559 8.36634ZM3.67438 9.78189C2.97355 9.90536 2.26791 10.0302 1.55743 10.1564L1.90732 12.1256C2.61684 11.9995 3.32151 11.8749 4.02137 11.7516L3.67438 9.78189ZM0.912464 10.5685C0.596289 11.0214 0.707062 11.6448 1.15989 11.9609L8.53905 17.1134C8.99188 17.4296 9.61528 17.3188 9.93146 16.866C10.2476 16.4132 10.1369 15.7898 9.68405 15.4736L3.12478 10.8936L7.70474 4.33435C8.02093 3.88153 7.91016 3.25813 7.45733 2.94194C7.00451 2.62576 6.38111 2.73654 6.06492 3.18936L0.912464 10.5685ZM177.922 46.5127C177.203 46.5859 176.49 46.6577 175.783 46.7281L175.981 48.7183C176.69 48.6477 177.404 48.5758 178.125 48.5023L177.922 46.5127ZM171.605 47.1331C170.235 47.2623 168.886 47.386 167.56 47.504L167.737 49.4961C169.067 49.3778 170.419 49.2538 171.793 49.1242L171.605 47.1331ZM163.645 47.8414C162.35 47.9493 161.076 48.0516 159.824 48.1485L159.979 50.1425C161.235 50.0454 162.512 49.9427 163.811 49.8345L163.645 47.8414ZM155.575 48.4618C154.187 48.559 152.827 48.649 151.494 48.732L151.619 50.7281C152.957 50.6448 154.322 50.5545 155.715 50.4569L155.575 48.4618ZM147.579 48.9599C146.247 49.0318 144.944 49.0963 143.67 49.1534L143.759 51.1514C145.04 51.094 146.349 51.0292 147.687 50.957L147.579 48.9599ZM139.454 49.3191C138.086 49.3651 136.753 49.4019 135.456 49.4298L135.499 51.4293C136.805 51.4013 138.145 51.3642 139.522 51.318L139.454 49.3191ZM131.669 49.4868C130.198 49.499 128.778 49.4987 127.405 49.4863L127.387 51.4862C128.772 51.4987 130.204 51.499 131.685 51.4867L131.669 49.4868ZM123.43 49.4133C122.068 49.3747 120.76 49.3229 119.502 49.2583L119.399 51.2556C120.673 51.3211 121.997 51.3735 123.374 51.4125L123.43 49.4133ZM115.387 48.9873C114.053 48.8785 112.788 48.7532 111.587 48.6121L111.353 50.5985C112.58 50.7425 113.869 50.8701 115.224 50.9807L115.387 48.9873ZM107.483 48.0283C106.104 47.7937 104.833 47.5338 103.663 47.2509L103.192 49.1948C104.412 49.4897 105.728 49.7586 107.148 50L107.483 48.0283ZM99.9568 46.1653C98.5707 45.6741 97.3931 45.141 96.3985 44.5751L95.4094 46.3133C96.5231 46.9471 97.8112 47.5268 99.2888 48.0504L99.9568 46.1653ZM93.4945 42.3354C92.6084 41.3675 92.0641 40.3381 91.7752 39.2578L89.8431 39.7746C90.2168 41.1718 90.9206 42.4858 92.0193 43.6859L93.4945 42.3354ZM91.6226 35.6535C91.788 34.4738 92.1326 33.2347 92.6102 31.9464L90.7349 31.2512C90.2232 32.6314 89.8328 34.0144 89.642 35.3759L91.6226 35.6535ZM94.1906 28.349C94.7713 27.176 95.4071 25.9925 96.0606 24.8044L94.3081 23.8406C93.6497 25.0376 92.9978 26.2504 92.3982 27.4617L94.1906 28.349ZM98.0241 21.2517C98.6944 20.0227 99.3392 18.7993 99.9054 17.6013L98.0972 16.7466C97.5551 17.8936 96.9314 19.0782 96.2683 20.2941L98.0241 21.2517ZM101.434 13.723C101.878 12.2193 102.103 10.7282 101.94 9.30894L99.9528 9.53775C100.075 10.5992 99.9146 11.8056 99.5159 13.1572L101.434 13.723ZM99.9597 5.19323C99.0498 4.27513 97.8329 3.50146 96.289 2.86615L95.5279 4.71568C96.8908 5.27653 97.8619 5.91775 98.5391 6.60106L99.9597 5.19323ZM92.2764 1.67143C91.041 1.40969 89.6679 1.19387 88.1463 1.02598L87.9269 3.01391C89.3943 3.17582 90.7012 3.3821 91.8618 3.628L92.2764 1.67143ZM84.0444 0.708148C82.7969 0.647092 81.4699 0.610465 80.0593 0.599264L80.0434 2.5992C81.4295 2.61021 82.7291 2.64617 83.9466 2.70576L84.0444 0.708148ZM75.8911 0.635092C74.6261 0.664985 73.3038 0.712003 71.9222 0.776713L72.0158 2.77452C73.3831 2.71048 74.6898 2.66404 75.9383 2.63453L75.8911 0.635092ZM67.8847 1.0054C66.5378 1.094 65.1409 1.19742 63.6923 1.31607L63.8556 3.3094C65.2942 3.19156 66.6804 3.08895 68.016 3.00108L67.8847 1.0054ZM59.8491 1.65537C58.5293 1.77987 57.1704 1.91586 55.7714 2.06361L55.9815 4.05255C57.3734 3.90554 58.7249 3.77029 60.0369 3.64653L59.8491 1.65537ZM51.5881 2.52681C50.3458 2.67041 49.0744 2.82253 47.7733 2.98331L48.0186 4.96821C49.3147 4.80805 50.5809 4.65656 51.8177 4.51358L51.5881 2.52681ZM43.7805 3.49183C42.4195 3.67012 41.0281 3.85725 39.6058 4.05337L39.879 6.03462C41.297 5.83909 42.6839 5.65257 44.0403 5.47489L43.7805 3.49183ZM35.6336 4.61303C34.3715 4.7945 33.0864 4.98264 31.7781 5.17755L32.0728 7.15572C33.3779 6.9613 34.6596 6.77365 35.9182 6.59267L35.6336 4.61303ZM27.7829 5.78266C26.4276 5.99121 25.0486 6.20662 23.6455 6.429L23.9586 8.40434C25.3588 8.18242 26.7348 7.96747 28.087 7.7594L27.7829 5.78266ZM19.5882 7.08064C18.3362 7.28428 17.0661 7.4932 15.7775 7.70746L16.1055 9.68038C17.3919 9.46649 18.6597 9.25795 19.9093 9.0547L19.5882 7.08064ZM11.8559 8.36634C10.5301 8.59136 9.18555 8.82178 7.82204 9.05769L8.16299 11.0284C9.52445 10.7929 10.8669 10.5628 12.1906 10.3381L11.8559 8.36634ZM3.67438 9.78189C2.97355 9.90536 2.26791 10.0302 1.55743 10.1564L1.90732 12.1256C2.61684 11.9995 3.32151 11.8749 4.02137 11.7516L3.67438 9.78189Z" fill="white"/>
</svg>
