<svg width="537" height="681" viewBox="0 0 537 681" fill="none" xmlns="http://www.w3.org/2000/svg">
<path opacity="0.04" fill-rule="evenodd" clip-rule="evenodd" d="M175 116C175 96.67 190.67 81 210 81H261.532C280.862 81 296.532 96.67 296.532 116V177H210C190.67 177 175 161.33 175 142V116ZM225.041 129C225.041 132.384 222.297 135.128 218.913 135.128C215.529 135.128 212.785 132.384 212.785 129C212.785 125.616 215.529 122.872 218.913 122.872C222.297 122.872 225.041 125.616 225.041 129ZM249.553 135.128C252.937 135.128 255.681 132.384 255.681 129C255.681 125.616 252.937 122.872 249.553 122.872C246.169 122.872 243.426 125.616 243.426 129C243.426 132.384 246.169 135.128 249.553 135.128Z" fill="white"/>
<path opacity="0.05" fill-rule="evenodd" clip-rule="evenodd" d="M175 256C175 236.67 190.67 221 210 221H252.67C272 221 287.67 236.67 287.67 256V310H210C190.67 310 175 294.33 175 275V256ZM221.392 265.5C221.392 268.637 218.849 271.181 215.711 271.181C212.574 271.181 210.03 268.637 210.03 265.5C210.03 262.363 212.574 259.819 215.711 259.819C218.849 259.819 221.392 262.363 221.392 265.5ZM244.117 271.181C247.254 271.181 249.798 268.637 249.798 265.5C249.798 262.363 247.254 259.819 244.117 259.819C240.98 259.819 238.436 262.363 238.436 265.5C238.436 268.637 240.98 271.181 244.117 271.181Z" fill="white"/>
<path opacity="0.07" fill-rule="evenodd" clip-rule="evenodd" d="M321 35C321 15.67 336.67 0 356 0H407.532C426.862 0 442.532 15.67 442.532 35V96H356C336.67 96 321 80.33 321 61V35ZM371.041 48C371.041 51.3842 368.297 54.1277 364.913 54.1277C361.529 54.1277 358.785 51.3842 358.785 48C358.785 44.6158 361.529 41.8723 364.913 41.8723C368.297 41.8723 371.041 44.6158 371.041 48ZM395.553 54.1277C398.937 54.1277 401.681 51.3842 401.681 48C401.681 44.6158 398.937 41.8723 395.553 41.8723C392.169 41.8723 389.426 44.6158 389.426 48C389.426 51.3842 392.169 54.1277 395.553 54.1277Z" fill="white"/>
<path opacity="0.03" fill-rule="evenodd" clip-rule="evenodd" d="M405 196C405 176.67 420.67 161 440 161H491.532C510.862 161 526.532 176.67 526.532 196V257H440C420.67 257 405 241.33 405 222V196ZM455.041 209C455.041 212.384 452.297 215.128 448.913 215.128C445.529 215.128 442.785 212.384 442.785 209C442.785 205.616 445.529 202.872 448.913 202.872C452.297 202.872 455.041 205.616 455.041 209ZM479.553 215.128C482.937 215.128 485.681 212.384 485.681 209C485.681 205.616 482.937 202.872 479.553 202.872C476.169 202.872 473.426 205.616 473.426 209C473.426 212.384 476.169 215.128 479.553 215.128Z" fill="white"/>
<path opacity="0.05" fill-rule="evenodd" clip-rule="evenodd" d="M0 382C0 362.67 15.67 347 35 347H86.5317C105.862 347 121.532 362.67 121.532 382V443H35C15.67 443 0 427.33 0 408V382ZM50.0406 395C50.0406 398.384 47.2972 401.128 43.913 401.128C40.5288 401.128 37.7853 398.384 37.7853 395C37.7853 391.616 40.5288 388.872 43.913 388.872C47.2972 388.872 50.0406 391.616 50.0406 395ZM74.5532 401.128C77.9374 401.128 80.6808 398.384 80.6808 395C80.6808 391.616 77.9374 388.872 74.5532 388.872C71.169 388.872 68.4255 391.616 68.4255 395C68.4255 398.384 71.169 401.128 74.5532 401.128Z" fill="white"/>
<path opacity="0.03" fill-rule="evenodd" clip-rule="evenodd" d="M52 614C52 594.67 67.67 579 87 579H138.532C157.862 579 173.532 594.67 173.532 614V675H87C67.67 675 52 659.33 52 640V614ZM102.041 627C102.041 630.384 99.2972 633.128 95.913 633.128C92.5288 633.128 89.7853 630.384 89.7853 627C89.7853 623.616 92.5288 620.872 95.913 620.872C99.2972 620.872 102.041 623.616 102.041 627ZM126.553 633.128C129.937 633.128 132.681 630.384 132.681 627C132.681 623.616 129.937 620.872 126.553 620.872C123.169 620.872 120.426 623.616 120.426 627C120.426 630.384 123.169 633.128 126.553 633.128Z" fill="white"/>
<path opacity="0.03" fill-rule="evenodd" clip-rule="evenodd" d="M317 487C317 467.67 332.67 452 352 452H403.532C422.862 452 438.532 467.67 438.532 487V548H352C332.67 548 317 532.33 317 513V487ZM367.041 500C367.041 503.384 364.297 506.128 360.913 506.128C357.529 506.128 354.785 503.384 354.785 500C354.785 496.616 357.529 493.872 360.913 493.872C364.297 493.872 367.041 496.616 367.041 500ZM391.553 506.128C394.937 506.128 397.681 503.384 397.681 500C397.681 496.616 394.937 493.872 391.553 493.872C388.169 493.872 385.426 496.616 385.426 500C385.426 503.384 388.169 506.128 391.553 506.128Z" fill="white"/>
<path opacity="0.05" fill-rule="evenodd" clip-rule="evenodd" d="M224 620C224 600.67 239.67 585 259 585H310.532C329.862 585 345.532 600.67 345.532 620V681H259C239.67 681 224 665.33 224 646V620ZM274.041 633C274.041 636.384 271.297 639.128 267.913 639.128C264.529 639.128 261.785 636.384 261.785 633C261.785 629.616 264.529 626.872 267.913 626.872C271.297 626.872 274.041 629.616 274.041 633ZM298.553 639.128C301.937 639.128 304.681 636.384 304.681 633C304.681 629.616 301.937 626.872 298.553 626.872C295.169 626.872 292.426 629.616 292.426 633C292.426 636.384 295.169 639.128 298.553 639.128Z" fill="white"/>
<path opacity="0.09" fill-rule="evenodd" clip-rule="evenodd" d="M479 340C479 320.67 494.67 305 514 305H565.532C584.862 305 600.532 320.67 600.532 340V401H514C494.67 401 479 385.33 479 366V340ZM529.041 353C529.041 356.384 526.297 359.128 522.913 359.128C519.529 359.128 516.785 356.384 516.785 353C516.785 349.616 519.529 346.872 522.913 346.872C526.297 346.872 529.041 349.616 529.041 353ZM553.553 359.128C556.937 359.128 559.681 356.384 559.681 353C559.681 349.616 556.937 346.872 553.553 346.872C550.169 346.872 547.426 349.616 547.426 353C547.426 356.384 550.169 359.128 553.553 359.128Z" fill="white"/>
</svg>
